<mxfile host="app.diagrams.net" modified="2023-11-15T16:51:35.837Z" agent="Mozilla/5.0 (X11; Ubuntu; Linux x86_64; rv:109.0) Gecko/20100101 Firefox/118.0" etag="6i3daDHBr2NmXFNodEmY" version="22.1.1" type="device">
  <diagram name="Page-1" id="naOOaUHlWIg6g84lMF8M">
    <mxGraphModel dx="4148" dy="2119" grid="1" gridSize="10" guides="1" tooltips="1" connect="1" arrows="1" fold="1" page="1" pageScale="1" pageWidth="600" pageHeight="475" math="0" shadow="0">
      <root>
        <mxCell id="0" />
        <mxCell id="1" parent="0" />
        <mxCell id="GLbLX6d_GFJWK6EcKB-V-5" value="" style="rounded=0;whiteSpace=wrap;html=1;fillColor=#DEDDDA;strokeColor=#999999;strokeWidth=6;" parent="1" vertex="1">
          <mxGeometry x="10" y="-420" width="190" height="310" as="geometry" />
        </mxCell>
        <mxCell id="GLbLX6d_GFJWK6EcKB-V-4" value="" style="rounded=0;whiteSpace=wrap;html=1;fillColor=#DEDDDA;strokeColor=#999999;strokeWidth=6;" parent="1" vertex="1">
          <mxGeometry x="2000" y="160" width="160" height="270" as="geometry" />
        </mxCell>
        <mxCell id="HKGf76yf_YqV7RcBEFJk-9" value="" style="rounded=0;whiteSpace=wrap;html=1;fillColor=none;strokeColor=#813d9c;strokeWidth=6;" parent="1" vertex="1">
          <mxGeometry x="170" y="-365" width="30" height="185" as="geometry" />
        </mxCell>
        <mxCell id="HKGf76yf_YqV7RcBEFJk-30" value="" style="rounded=0;whiteSpace=wrap;html=1;fillColor=none;strokeColor=#813d9c;strokeWidth=6;" parent="1" vertex="1">
          <mxGeometry x="2003" y="200" width="30" height="185" as="geometry" />
        </mxCell>
        <mxCell id="oj8sMwRd8QXnQj2qeah--5" value="&lt;font style=&quot;font-size: 30px;&quot; face=&quot;Lexend&quot; data-font-src=&quot;https://fonts.googleapis.com/css?family=Lexend&quot;&gt;&lt;b&gt;Exit&lt;/b&gt;&lt;/font&gt;" style="text;html=1;strokeColor=none;fillColor=none;align=center;verticalAlign=middle;whiteSpace=wrap;rounded=0;fontSize=60;" parent="1" vertex="1">
          <mxGeometry x="2000" y="257" width="160" height="70" as="geometry" />
        </mxCell>
        <mxCell id="oj8sMwRd8QXnQj2qeah--6" value="&lt;font size=&quot;1&quot; face=&quot;Lexend&quot;&gt;&lt;b style=&quot;font-size: 30px;&quot;&gt;Entrance&lt;/b&gt;&lt;/font&gt;" style="text;html=1;strokeColor=none;fillColor=none;align=center;verticalAlign=middle;whiteSpace=wrap;rounded=0;fontSize=60;strokeWidth=30;" parent="1" vertex="1">
          <mxGeometry x="8" y="-307.5" width="160" height="70" as="geometry" />
        </mxCell>
        <mxCell id="oj8sMwRd8QXnQj2qeah--3" value="" style="rounded=0;whiteSpace=wrap;html=1;fillColor=#DEDDDA;strokeColor=#999999;strokeWidth=6;" parent="1" vertex="1">
          <mxGeometry x="350" y="-430" width="1490" height="710" as="geometry" />
        </mxCell>
        <mxCell id="oj8sMwRd8QXnQj2qeah--33" value="" style="edgeStyle=orthogonalEdgeStyle;rounded=0;orthogonalLoop=1;jettySize=auto;html=1;strokeColor=#FF8787;strokeWidth=15;" parent="1" source="HKGf76yf_YqV7RcBEFJk-6" target="HKGf76yf_YqV7RcBEFJk-7" edge="1">
          <mxGeometry relative="1" as="geometry" />
        </mxCell>
        <mxCell id="HKGf76yf_YqV7RcBEFJk-6" value="" style="rounded=0;whiteSpace=wrap;html=1;fillColor=#1A1A1A;strokeColor=#000000;strokeWidth=6;" parent="1" vertex="1">
          <mxGeometry x="450" y="-330" width="1230" height="315" as="geometry" />
        </mxCell>
        <mxCell id="HKGf76yf_YqV7RcBEFJk-7" value="" style="rounded=0;whiteSpace=wrap;html=1;fillColor=#1A1A1A;strokeColor=#62a0ea;strokeWidth=6;dashed=1;" parent="1" vertex="1">
          <mxGeometry x="450" y="97" width="1230" height="100" as="geometry" />
        </mxCell>
        <mxCell id="oj8sMwRd8QXnQj2qeah--11" value="&lt;font style=&quot;font-size: 48px;&quot; face=&quot;Lexend&quot;&gt;&lt;b&gt;Waiting Area&lt;br&gt;&lt;/b&gt;&lt;/font&gt;" style="text;html=1;strokeColor=none;fillColor=none;align=center;verticalAlign=middle;whiteSpace=wrap;rounded=0;fontSize=60;" parent="1" vertex="1">
          <mxGeometry x="460" y="-395" width="1230" height="30" as="geometry" />
        </mxCell>
        <mxCell id="oj8sMwRd8QXnQj2qeah--14" value="&lt;font style=&quot;font-size: 48px;&quot; face=&quot;Lexend&quot;&gt;&lt;b&gt;Treatment Area&lt;br&gt;&lt;/b&gt;&lt;/font&gt;" style="text;html=1;strokeColor=none;fillColor=none;align=center;verticalAlign=middle;whiteSpace=wrap;rounded=0;fontSize=60;" parent="1" vertex="1">
          <mxGeometry x="790" y="227" width="580" height="30" as="geometry" />
        </mxCell>
        <mxCell id="HKGf76yf_YqV7RcBEFJk-39" style="edgeStyle=orthogonalEdgeStyle;rounded=0;orthogonalLoop=1;jettySize=auto;html=1;exitX=1;exitY=0.5;exitDx=0;exitDy=0;strokeWidth=15;strokeColor=#FF8787;endSize=12;entryX=0;entryY=0.5;entryDx=0;entryDy=0;" parent="1" target="oj8sMwRd8QXnQj2qeah--5" edge="1" source="HKGf76yf_YqV7RcBEFJk-7">
          <mxGeometry relative="1" as="geometry">
            <Array as="points">
              <mxPoint x="1920" y="147" />
              <mxPoint x="1920" y="292" />
            </Array>
            <mxPoint x="1680" y="-35" as="sourcePoint" />
            <mxPoint x="1680" y="380" as="targetPoint" />
          </mxGeometry>
        </mxCell>
        <mxCell id="GLbLX6d_GFJWK6EcKB-V-1" style="edgeStyle=orthogonalEdgeStyle;rounded=0;orthogonalLoop=1;jettySize=auto;html=1;exitX=1;exitY=0.5;exitDx=0;exitDy=0;entryX=0;entryY=0.5;entryDx=0;entryDy=0;strokeColor=#FF8787;strokeWidth=15;" parent="1" source="HKGf76yf_YqV7RcBEFJk-9" target="HKGf76yf_YqV7RcBEFJk-6" edge="1">
          <mxGeometry relative="1" as="geometry" />
        </mxCell>
        <mxCell id="48XMk7XvT6o6QUz9zPDv-1" style="edgeStyle=orthogonalEdgeStyle;rounded=0;orthogonalLoop=1;jettySize=auto;html=1;exitX=0.5;exitY=1;exitDx=0;exitDy=0;entryX=0.476;entryY=1.1;entryDx=0;entryDy=0;entryPerimeter=0;" edge="1" parent="1" source="oj8sMwRd8QXnQj2qeah--14" target="oj8sMwRd8QXnQj2qeah--14">
          <mxGeometry relative="1" as="geometry" />
        </mxCell>
      </root>
    </mxGraphModel>
  </diagram>
</mxfile>
